PathFileType	4	(X/Y/Z)	/Users/whiskymisky/masters/Sports2D_results/trial_4_Sports2D/trial_4_Sports2D_m_person00.trc
DataRate	CameraRate	NumFrames	NumMarkers	Units	OrigDataRate	OrigDataStartFrame	OrigNumFrames
50	50	7	22	m	50	137	1098
Frame#	Time	Hip			RHip			RKnee			RAnkle			RBigToe			RSmallToe			RHeel			LHip			LKnee			LAnkle			LBigToe			LSmallToe			LHeel			Neck			Head			Nose			RShoulder			RElbow			RWrist			LShoulder			LElbow			LWrist		
		X1	Y1	Z1	X2	Y2	Z2	X3	Y3	Z3	X4	Y4	Z4	X5	Y5	Z5	X6	Y6	Z6	X7	Y7	Z7	X8	Y8	Z8	X9	Y9	Z9	X10	Y10	Z10	X11	Y11	Z11	X12	Y12	Z12	X13	Y13	Z13	X14	Y14	Z14	X15	Y15	Z15	X16	Y16	Z16	X17	Y17	Z17	X18	Y18	Z18	X19	Y19	Z19	X20	Y20	Z20	X21	Y21	Z21	X22	Y22	Z22
137	2.74	4.3222998061711655	0.8366072925525088	0.0301	4.195628303187812	0.8538915551657873	0.0301	3.9009866273260334	0.515851519278661	0.129	3.668376156892318	0.20859324565213597	0.023	3.611898808967069	0.09823480245259213	0.2179	3.548859059694698	0.14015284822727608	0.1804	3.669523461788294	0.1577406813842939	-0.0119	4.412243669626782	0.7525789881843163	0.0301	4.289208913135503	0.34545800220067147	0.129	4.195641854939124	0.013471958442555821	0.023	4.195992541584635	-0.11035590756583219	0.2179	4.2492482583285875	-0.11167433043263109	0.1804	4.154580858160368	-0.013154029979602487	-0.0119	4.593132657045795	1.3643758521958764	0.0008	4.693705823925709	1.627813045744311	0.0655	4.602332082720285	1.478400265993884	0.1076	4.391460058485338	1.3676536723323713	-0.01275	4.208934683478248	1.1245246043264157	0.0702	4.067320562755717	0.9045721146300284	0.1076	4.735922423868705	1.211748458046748	-0.01275	4.6432977947521925	0.9204415204881781	0.0702	4.517671433982965	0.6943287834839491	0.1076
138	2.7600000000000002	4.322118712238118	0.83585415359457	0.0301	4.1948454418839916	0.8542027674125908	0.0301	3.9006914002980198	0.5150415010911065	0.129	3.6681614472347572	0.20877297545097764	0.023	3.611983109172843	0.09829659768837501	0.2179	3.5488542792736273	0.14017362001288222	0.1804	3.6687013719519674	0.1578082278789692	-0.0119	4.412836849920606	0.752229773083029	0.0301	4.28962181532115	0.34461378004749	0.129	4.1955048877144705	0.013059636548266447	0.023	4.195619813081039	-0.11100005781674166	0.2179	4.248929665905034	-0.11273088817108408	0.1804	4.154525376119634	-0.013825583834171063	-0.0119	4.593374457745372	1.3649329363932687	0.0008	4.691844608079921	1.6286437712130815	0.0655	4.600029252561467	1.4797931908716342	0.1076	4.391610183297832	1.368100990942314	-0.01275	4.209012743438433	1.1249202544031183	0.0702	4.066555385125844	0.9048247146230777	0.1076	4.736470676712187	1.2127109020938005	-0.01275	4.643611704172677	0.9200433766488331	0.0702	4.51744799233446	0.6947332642504142	0.1076
139	2.7800000000000002	4.322036573220683	0.835506339849098	0.0301	4.19459190498745	0.8539556063606514	0.0301	3.9002786631113464	0.5145502841254107	0.129	3.6683737678898596	0.20874942245012806	0.023	3.6119448616900747	0.098352273860691	0.2179	3.5485179147835315	0.1403187743865607	0.1804	3.6681272360733206	0.15771063697934937	-0.0119	4.412893333669547	0.7517543376512748	0.0301	4.290495308974286	0.3434113489726832	0.129	4.195253404037153	0.013070323071971535	0.023	4.195252863059038	-0.11181158184547776	0.2179	4.24877599346997	-0.11422236729936475	0.1804	4.154661681645431	-0.0141688902595197	-0.0119	4.593885838121182	1.365155871181029	0.0008	4.690296132565127	1.6295193952321014	0.0655	4.597764687832307	1.481134703111359	0.1076	4.391718879228498	1.368213639774922	-0.01275	4.209324760052467	1.1254084223373353	0.0702	4.066101006891424	0.9047046621765436	0.1076	4.736996526659809	1.213424713558286	-0.01275	4.644119213733741	0.9198774206254813	0.0702	4.517192033251159	0.6951929534702219	0.1076
140	2.8000000000000003	4.322384050179131	0.8358924096880977	0.0301	4.194939493495812	0.8536958550349496	0.0301	3.899822706554371	0.5145869611079008	0.129	3.668795589362953	0.20865096016476634	0.023	3.612250859565093	0.09837326494156336	0.2179	3.548111869744655	0.1403345764568009	0.1804	3.667550846097174	0.157552661980066	-0.0119	4.412682810079466	0.7516711786464362	0.0301	4.291630004809912	0.3425419775042998	0.129	4.194954437983867	0.013477588266642849	0.023	4.19498403319088	-0.1126510650730585	0.2179	4.248875421465343	-0.11538156462888007	0.1804	4.154710336521747	-0.014218088425411684	-0.0119	4.594413154793282	1.3651840047808292	0.0008	4.689267428971601	1.630094606762602	0.0655	4.595539195544018	1.4821723970975655	0.1076	4.392008645942347	1.3681812295418734	-0.01275	4.2095535251254566	1.1258879161755497	0.0702	4.06579091009135	0.9043700467759113	0.1076	4.737366619645731	1.2138324695287261	-0.01275	4.64470379341565	0.9197139158442228	0.0702	4.516914566753694	0.6953183015028966	0.1076
141	2.82	4.323215509321332	0.8371088000934664	0.0301	4.195588240501139	0.8539447337041047	0.0301	3.8995504737203945	0.5151939106710126	0.129	3.668931521392428	0.20873151167867912	0.023	3.6131849459674017	0.09825808055681051	0.2179	3.5479256471525087	0.13984290541204525	0.1804	3.666302676802656	0.157558842672976	-0.0119	4.412594851415121	0.7523222774127398	0.0301	4.292738227897914	0.34256664353750327	0.129	4.194828939215197	0.013806806225473282	0.023	4.1947785725274365	-0.11327449204110224	0.2179	4.249191889355751	-0.1156038530622985	0.1804	4.154442842353879	-0.014418666384826317	-0.0119	4.594704313210201	1.365321108037465	0.0008	4.688728491616449	1.6302297864243225	0.0655	4.593408267672446	1.4827407450507388	0.1076	4.392588425536338	1.3683704906428	-0.01275	4.209500848152201	1.1262271547362044	0.0702	4.065378816104522	0.9041583892288694	0.1076	4.737589051542622	1.2138381714697426	-0.01275	4.645212108662969	0.91923704236129	0.0702	4.516746515878606	0.6950349161607117	0.1076
142	2.84	4.324141417675568	0.8386066788199902	0.0301	4.196194476958472	0.85447527175773	0.0301	3.8994425199932454	0.5162867345654378	0.129	3.668518379065217	0.20923385493838867	0.023	3.614239517849286	0.09807913859693165	0.2179	3.547976496068777	0.13898993083297215	0.1804	3.664327654529807	0.1580202999266799	-0.0119	4.412851344019874	0.7533983884110527	0.0301	4.293465005060981	0.34318778071911904	0.129	4.195023300310045	0.013912683218547595	0.023	4.194367928217369	-0.11348309719273586	0.2179	4.249478416956933	-0.11498220215695151	0.1804	4.154060435773462	-0.014841679571401263	-0.0119	4.59458505706296	1.3657967568106315	0.0008	4.688204480656292	1.630238883791544	0.0655	4.591418413042895	1.4830089135149531	0.1076	4.393089551818295	1.3686753890295276	-0.01275	4.209318648091117	1.1263380272265695	0.0702	4.064747312287147	0.9043776442990825	0.1076	4.737843576809549	1.2135927257108339	-0.01275	4.64553940850014	0.9188131995250979	0.0702	4.5169440532537655	0.6949091238463067	0.1076
143	2.86	4.324765128839084	0.8397202545424752	0.0301	4.196640872230153	0.854794899482508	0.0301	3.8994217371734896	0.5176043252945997	0.129	3.6676289203369326	0.2100344174343357	0.023	3.6147305031890626	0.0979759685087255	0.2179	3.5480280937466615	0.13837045017771182	0.1804	3.6623452205470666	0.15888407575435065	-0.0119	4.413510729818054	0.7544978986373037	0.0301	4.293653556135616	0.34383406454438553	0.129	4.195470780141093	0.013882351945465006	0.023	4.193682667305809	-0.11325251828888196	0.2179	4.249496621721743	-0.11415601181834482	0.1804	4.153908834105912	-0.015295245902534277	-0.0119	4.594001029486402	1.366510332513498	0.0008	4.687121687031255	1.6305074904894852	0.0655	4.589387653586111	1.483331825429418	0.1076	4.393029456268674	1.3687297768256081	-0.01275	4.209063801868091	1.126323520556673	0.0702	4.064089701208412	0.9051818433841058	0.1076	4.738148129397755	1.2134403057587169	-0.01275	4.645640630116757	0.919026362858442	0.0702	4.517571931835546	0.6954127185997074	0.1076
